#define slac_and_back_width 152
#define slac_and_back_height 150
static char slac_and_back_bits[] = {
  0x00, 0x00, 0x00, 0x00, 0x00, 0x00, 0x00, 0x00, 0x00, 0x00, 0x00, 0x00, 
  0x00, 0x00, 0x00, 0x00, 0x00, 0x00, 0x00, 0x00, 0x00, 0x00, 0x00, 0x00, 
  0x00, 0x00, 0x00, 0x00, 0x00, 0x00, 0x00, 0x00, 0x00, 0x00, 0x00, 0x00, 
  0x00, 0x00, 0x00, 0x00, 0x00, 0x00, 0x00, 0x00, 0x00, 0x00, 0x00, 0x00, 
  0x00, 0x00, 0x00, 0x00, 0x00, 0x00, 0x00, 0x00, 0x00, 0x00, 0x00, 0x00, 
  0x00, 0x00, 0x00, 0x00, 0x00, 0x00, 0x00, 0x00, 0x00, 0x00, 0x00, 0x00, 
  0x00, 0x00, 0x00, 0x00, 0x00, 0x00, 0x00, 0x00, 0x00, 0x00, 0x00, 0x00, 
  0x00, 0x00, 0x00, 0x00, 0x00, 0x00, 0x00, 0x00, 0x00, 0x00, 0x00, 0x00, 
  0x00, 0x00, 0x00, 0x00, 0x00, 0x00, 0x00, 0x00, 0x00, 0x00, 0x00, 0x00, 
  0x00, 0x00, 0x00, 0x00, 0x00, 0x00, 0x00, 0x00, 0x00, 0x00, 0x00, 0x00, 
  0x00, 0x00, 0x00, 0x00, 0x00, 0x00, 0x00, 0x00, 0x00, 0x00, 0x00, 0x00, 
  0x00, 0x00, 0x00, 0x00, 0x00, 0x00, 0x00, 0x00, 0x00, 0xFE, 0xFF, 0x7F, 
  0x00, 0x00, 0x00, 0x00, 0x00, 0x00, 0x00, 0x00, 0x00, 0x00, 0x00, 0x00, 
  0x00, 0x00, 0x00, 0xF8, 0x1F, 0x00, 0xE0, 0x07, 0x00, 0x00, 0x00, 0x00, 
  0x00, 0x00, 0x00, 0x00, 0x00, 0x00, 0x00, 0x00, 0x00, 0x00, 0x3F, 0x90, 
  0x4D, 0x02, 0xFC, 0x00, 0x00, 0x00, 0x00, 0x00, 0x00, 0x00, 0x00, 0x00, 
  0x00, 0x00, 0x00, 0x00, 0xE0, 0x03, 0x97, 0x48, 0xB2, 0xC1, 0x03, 0x00, 
  0x00, 0x00, 0x00, 0x00, 0x00, 0x00, 0x00, 0x00, 0x00, 0x00, 0x00, 0x3C, 
  0xEC, 0x00, 0x00, 0x80, 0x4C, 0x1E, 0x00, 0x00, 0x00, 0x00, 0x00, 0x00, 
  0x00, 0x00, 0x00, 0x00, 0x00, 0x00, 0x8F, 0x09, 0xF8, 0xFF, 0x07, 0x60, 
  0xF0, 0x00, 0x00, 0x00, 0x00, 0x00, 0x00, 0x00, 0x00, 0x00, 0x00, 0x00, 
  0xC0, 0x31, 0xC0, 0xFF, 0x00, 0xFE, 0x01, 0x93, 0x03, 0x00, 0x00, 0x00, 
  0x00, 0x00, 0x00, 0x00, 0x00, 0x00, 0x00, 0x30, 0x12, 0xFE, 0x00, 0x00, 
  0x00, 0x3E, 0x18, 0x0E, 0x00, 0x00, 0x00, 0x00, 0x00, 0x00, 0x00, 0x00, 
  0x00, 0x00, 0x1C, 0x82, 0x07, 0x00, 0x00, 0x00, 0xF0, 0xC1, 0x3C, 0x00, 
  0x00, 0x00, 0x00, 0x00, 0x00, 0x00, 0x00, 0x00, 0x00, 0xC7, 0xF0, 0x00, 
  0x00, 0xF0, 0x01, 0x00, 0x07, 0x76, 0x00, 0x00, 0x00, 0x00, 0x00, 0x00, 
  0x00, 0x00, 0x00, 0x80, 0x19, 0x1E, 0x00, 0x30, 0x98, 0xF1, 0x00, 0x3C, 
  0xC6, 0x01, 0x00, 0x00, 0x00, 0x00, 0x00, 0x00, 0x00, 0x00, 0x60, 0x88, 
  0x03, 0x00, 0x70, 0x0C, 0x8D, 0x05, 0xE0, 0x30, 0x03, 0x00, 0x00, 0x00, 
  0x00, 0x00, 0x00, 0x00, 0x00, 0x30, 0xC3, 0x00, 0x00, 0x70, 0x0C, 0x8D, 
  0x7D, 0x80, 0xC3, 0x0C, 0x00, 0x00, 0x00, 0x00, 0x00, 0x00, 0x00, 0x00, 
  0x0C, 0x38, 0xE0, 0x01, 0xE8, 0x0C, 0x0E, 0xCC, 0x00, 0x8E, 0x18, 0x00, 
  0x00, 0x00, 0x00, 0x00, 0x00, 0x00, 0x00, 0x66, 0x0C, 0x18, 0x03, 0xC8, 
  0x0C, 0x06, 0x8C, 0x0C, 0x38, 0x76, 0x00, 0x00, 0x00, 0x00, 0x00, 0x00, 
  0x00, 0x00, 0x1B, 0x07, 0x38, 0x03, 0xF8, 0x0D, 0x0F, 0xBE, 0x38, 0x70, 
  0xE6, 0x00, 0x00, 0x00, 0x00, 0x00, 0x00, 0x00, 0x80, 0x88, 0x01, 0x30, 
  0x01, 0x88, 0x9D, 0x8C, 0x16, 0x1C, 0xC0, 0x90, 0x01, 0x00, 0x00, 0x00, 
  0x00, 0x00, 0x00, 0x60, 0xC3, 0x00, 0xF0, 0x03, 0xCC, 0x73, 0x4C, 0x16, 
  0x0C, 0x00, 0x33, 0x03, 0x00, 0x00, 0x00, 0x00, 0x00, 0x00, 0x30, 0x33, 
  0x20, 0x60, 0x06, 0x00, 0x00, 0x90, 0x47, 0x0E, 0x0C, 0xC6, 0x06, 0x00, 
  0x00, 0x00, 0x00, 0x00, 0x00, 0x98, 0x18, 0xE0, 0xE0, 0x0E, 0x00, 0x00, 
  0x00, 0x66, 0x06, 0x1C, 0x8C, 0x0C, 0x00, 0x00, 0x00, 0x00, 0x00, 0x00, 
  0x4C, 0x0C, 0xE0, 0xE1, 0x01, 0x00, 0x00, 0x00, 0x30, 0x07, 0x7C, 0x38, 
  0x1A, 0x00, 0x00, 0x00, 0x00, 0x00, 0x00, 0x06, 0x82, 0xA0, 0xC3, 0x00, 
  0xC0, 0xFF, 0x01, 0x80, 0x03, 0xCE, 0x60, 0x32, 0x00, 0x00, 0x00, 0x00, 
  0x00, 0x00, 0x13, 0xC1, 0xA1, 0x2F, 0x00, 0x0F, 0x40, 0x78, 0x00, 0x26, 
  0xCF, 0xC0, 0x68, 0x00, 0x00, 0x00, 0x00, 0x00, 0x80, 0xC1, 0x20, 0x63, 
  0x0E, 0x70, 0xFE, 0xFF, 0x3F, 0x07, 0x38, 0x5F, 0x84, 0xD9, 0x00, 0x00, 
  0x00, 0x00, 0x00, 0xC0, 0x66, 0x90, 0x20, 0x02, 0xCE, 0x3F, 0x00, 0xFE, 
  0x39, 0xC0, 0x0B, 0x0C, 0x83, 0x01, 0x00, 0x00, 0x00, 0x00, 0x40, 0x32, 
  0xB8, 0xE1, 0x80, 0xF9, 0x00, 0x00, 0x80, 0xDF, 0x80, 0x09, 0x1E, 0x66, 
  0x03, 0x00, 0x00, 0x00, 0x00, 0x20, 0x19, 0xF2, 0x69, 0x60, 0x0F, 0x00, 
  0x00, 0x00, 0x78, 0x03, 0x13, 0x27, 0x0C, 0x02, 0x00, 0x00, 0x00, 0x00, 
  0xB0, 0x09, 0xE3, 0x18, 0xD8, 0x03, 0x00, 0x00, 0x00, 0xE0, 0x09, 0x9C, 
  0x23, 0x98, 0x05, 0x00, 0x00, 0x00, 0x00, 0x18, 0x84, 0xC3, 0x0D, 0xF4, 
  0x00, 0x00, 0x00, 0x00, 0x80, 0x17, 0xC8, 0x33, 0x10, 0x0D, 0x00, 0x00, 
  0x00, 0x00, 0x6C, 0x02, 0xC4, 0x07, 0x39, 0x00, 0x00, 0x00, 0x00, 0x00, 
  0x4E, 0xE0, 0x3C, 0x20, 0x1A, 0x00, 0x00, 0x00, 0x00, 0x24, 0x03, 0x98, 
  0xC3, 0x0E, 0x00, 0x00, 0x00, 0x00, 0x00, 0xB8, 0x40, 0x06, 0x60, 0x36, 
  0x00, 0x00, 0x00, 0x00, 0x96, 0xE1, 0xBF, 0x20, 0x03, 0x00, 0x00, 0x00, 
  0x00, 0x00, 0xE0, 0x82, 0x06, 0xC0, 0x20, 0x00, 0x00, 0x00, 0x00, 0x9B, 
  0xF0, 0x7F, 0xD0, 0x01, 0x00, 0x00, 0x00, 0x80, 0x00, 0xC0, 0x05, 0x03, 
  0x80, 0x79, 0x00, 0x00, 0x00, 0x00, 0xC1, 0x80, 0x00, 0xE8, 0x00, 0x00, 
  0x00, 0x00, 0xC0, 0x01, 0x80, 0x0B, 0x06, 0x0F, 0x59, 0x00, 0x00, 0x00, 
  0x80, 0x65, 0x00, 0x01, 0x34, 0x00, 0x00, 0x00, 0x00, 0x20, 0x02, 0x00, 
  0x16, 0xFC, 0x06, 0xC2, 0x00, 0x00, 0x00, 0xC0, 0x24, 0x04, 0x0A, 0x1A, 
  0x00, 0x00, 0x00, 0x00, 0x30, 0x04, 0x00, 0x2C, 0x58, 0x03, 0xA6, 0x01, 
  0x00, 0x00, 0xC0, 0x10, 0x1E, 0x0C, 0x0D, 0x00, 0x00, 0x00, 0x00, 0x18, 
  0x04, 0x00, 0x58, 0xD0, 0x03, 0x24, 0x01, 0x00, 0x00, 0x40, 0x1B, 0x3A, 
  0x84, 0x06, 0x00, 0x00, 0x00, 0x00, 0x18, 0x08, 0x00, 0xB0, 0x80, 0x61, 
  0x4C, 0x03, 0x00, 0x00, 0x20, 0x09, 0xF0, 0x40, 0x03, 0x00, 0x00, 0x00, 
  0x00, 0x00, 0x08, 0x40, 0x60, 0xE1, 0xC1, 0x48, 0x02, 0x00, 0x00, 0xB0, 
  0x0C, 0xC0, 0xA1, 0x01, 0x00, 0x00, 0x00, 0x00, 0x08, 0x08, 0xE0, 0xC1, 
  0xC2, 0xC0, 0x18, 0x04, 0x00, 0x00, 0x90, 0x04, 0x80, 0xD1, 0x00, 0x00, 
  0x00, 0x80, 0x07, 0x08, 0x10, 0x28, 0x83, 0x85, 0xE0, 0x11, 0x04, 0x00, 
  0x00, 0x10, 0x46, 0x90, 0x70, 0x00, 0x00, 0x00, 0x40, 0x60, 0x08, 0x10, 
  0x02, 0x03, 0x07, 0x78, 0xA1, 0x0D, 0x00, 0x00, 0x58, 0x62, 0x60, 0x68, 
  0x00, 0x00, 0x00, 0x40, 0xC0, 0x0C, 0x90, 0x01, 0x02, 0x0B, 0x1F, 0x63, 
  0x08, 0x00, 0x00, 0x68, 0xE3, 0x21, 0x34, 0x00, 0x00, 0x00, 0x40, 0x80, 
  0x07, 0x70, 0x00, 0x02, 0x16, 0x86, 0x41, 0x1A, 0x00, 0x00, 0x0C, 0xC1, 
  0x23, 0x1C, 0x00, 0x00, 0x00, 0x40, 0x00, 0x04, 0x30, 0x00, 0x01, 0x0C, 
  0x02, 0x40, 0x12, 0x00, 0x00, 0xA4, 0x01, 0x1F, 0x0A, 0x00, 0x00, 0x00, 
  0x80, 0x00, 0x1C, 0x28, 0x00, 0x01, 0x2C, 0xC0, 0xC3, 0x10, 0x00, 0x00, 
  0xB6, 0x00, 0x1C, 0x0C, 0x00, 0x00, 0x00, 0x80, 0x00, 0x34, 0x24, 0x80, 
  0x01, 0x58, 0xE0, 0x87, 0x34, 0x00, 0x00, 0x86, 0x00, 0x08, 0x05, 0x00, 
  0x00, 0x00, 0x00, 0x01, 0x44, 0x22, 0x80, 0x00, 0x58, 0x70, 0x88, 0x24, 
  0x00, 0x00, 0xC2, 0x00, 0x08, 0x06, 0x00, 0x00, 0x00, 0x00, 0x01, 0x84, 
  0x01, 0xC0, 0x00, 0x30, 0x10, 0x08, 0x21, 0x00, 0x00, 0x4A, 0x00, 0x80, 
  0x02, 0x00, 0x00, 0x00, 0x00, 0x02, 0x84, 0x01, 0x60, 0x00, 0xB0, 0x08, 
  0x08, 0x69, 0x00, 0x00, 0x43, 0x00, 0x00, 0x03, 0x00, 0x00, 0x00, 0x00, 
  0xC2, 0x7F, 0x06, 0x7F, 0x00, 0x60, 0x10, 0x0E, 0x4B, 0x00, 0x00, 0x21, 
  0x00, 0x40, 0x01, 0x00, 0x00, 0x00, 0x00, 0x3E, 0x82, 0x7F, 0xB0, 0x07, 
  0x60, 0xE1, 0x07, 0x42, 0x00, 0x00, 0x2D, 0x18, 0xC0, 0x01, 0x00, 0x00, 
  0x00, 0xF0, 0x09, 0xE2, 0x7F, 0x10, 0x10, 0xC0, 0xC1, 0x33, 0x52, 0x00, 
  0x80, 0x21, 0xFC, 0xA0, 0x01, 0x00, 0x00, 0x00, 0x78, 0x10, 0x70, 0x7C, 
  0x08, 0x40, 0xC0, 0x22, 0x3E, 0xD2, 0x00, 0x80, 0x25, 0xC2, 0xA1, 0x00, 
  0x00, 0x00, 0x00, 0x04, 0x20, 0x30, 0x1E, 0x04, 0x80, 0x80, 0xE2, 0x3F, 
  0x82, 0x00, 0x80, 0x16, 0x80, 0xC1, 0x00, 0x00, 0x00, 0x00, 0x02, 0x60, 
  0x1A, 0x4E, 0x02, 0x00, 0x81, 0xC3, 0x03, 0x84, 0x00, 0x80, 0x10, 0x01, 
  0xC1, 0x00, 0x00, 0x00, 0x00, 0x01, 0x40, 0x3D, 0x67, 0x01, 0x80, 0x00, 
  0x41, 0x04, 0xB4, 0x00, 0x80, 0x12, 0x1F, 0x51, 0x00, 0x00, 0xE0, 0x00, 
  0x01, 0xC0, 0xFC, 0x61, 0x03, 0xC0, 0x00, 0x05, 0x3E, 0x84, 0x01, 0x80, 
  0x12, 0xFF, 0x71, 0x00, 0x00, 0xFC, 0x07, 0x02, 0x40, 0xFD, 0xB8, 0x04, 
  0x28, 0x00, 0x85, 0x3B, 0xA4, 0x01, 0xC0, 0x10, 0xE0, 0x60, 0x00, 0x00, 
  0x0E, 0x0E, 0x0C, 0x60, 0xFC, 0x5A, 0x04, 0x1E, 0x00, 0x87, 0x01, 0x2C, 
  0x01, 0xC0, 0x10, 0x80, 0x60, 0x00, 0x80, 0x83, 0x0F, 0x30, 0x30, 0xFF, 
  0x4F, 0xD8, 0x07, 0x00, 0x82, 0x01, 0x08, 0x01, 0x40, 0x0B, 0x00, 0x68, 
  0x00, 0xE0, 0xE0, 0x0F, 0x80, 0x93, 0xEB, 0x73, 0x3F, 0x00, 0x00, 0x02, 
  0x00, 0x08, 0x01, 0x40, 0x08, 0xC7, 0x68, 0x00, 0x38, 0xB0, 0x0F, 0x00, 
  0xF8, 0x00, 0xFC, 0x20, 0x00, 0x00, 0x0A, 0x00, 0x68, 0x01, 0x40, 0x88, 
  0xFF, 0x28, 0x00, 0x1C, 0xFC, 0x0F, 0x00, 0x78, 0x04, 0x44, 0x40, 0x00, 
  0x00, 0x0A, 0x00, 0x08, 0x01, 0x40, 0x8B, 0x78, 0x38, 0x00, 0x07, 0x7F, 
  0x1E, 0x00, 0x1C, 0xC4, 0x42, 0x40, 0x00, 0x00, 0x0A, 0x00, 0x48, 0x01, 
  0x40, 0x89, 0x08, 0x38, 0xC0, 0x81, 0x3F, 0x1E, 0x00, 0x07, 0x04, 0x41, 
  0x80, 0x00, 0x00, 0x0A, 0x00, 0x48, 0x01, 0x40, 0x88, 0x7F, 0x38, 0xF0, 
  0xE0, 0x0E, 0x1C, 0xC0, 0x01, 0x84, 0x22, 0x80, 0x01, 0x00, 0x0A, 0x3E, 
  0x08, 0x01, 0x40, 0x89, 0x7F, 0x30, 0x3C, 0xF8, 0x07, 0x1C, 0xF0, 0x01, 
  0x44, 0x2C, 0x00, 0x01, 0x00, 0x0E, 0x7F, 0x08, 0x01, 0x40, 0x89, 0x40, 
  0x30, 0x0E, 0xFE, 0x03, 0x1C, 0x38, 0x01, 0x28, 0x38, 0x00, 0x01, 0x00, 
  0x0E, 0xC1, 0x48, 0x01, 0x40, 0x08, 0x0C, 0xB0, 0x03, 0xFF, 0x03, 0x1C, 
  0x8E, 0x00, 0x08, 0x20, 0x00, 0x02, 0x00, 0x8E, 0x80, 0x48, 0x01, 0x40, 
  0x09, 0x7F, 0xF0, 0xC1, 0xBF, 0x03, 0x8F, 0x83, 0x00, 0x0C, 0xE0, 0x00, 
  0x02, 0x00, 0x8E, 0x81, 0x08, 0x01, 0x40, 0x09, 0x77, 0x78, 0xF0, 0x8B, 
  0x03, 0xC3, 0x81, 0x00, 0x0B, 0xA0, 0x03, 0x02, 0x00, 0x0E, 0xC1, 0x48, 
  0x01, 0x40, 0x88, 0x80, 0x38, 0xF8, 0x87, 0x83, 0x72, 0x80, 0xC0, 0x08, 
  0x20, 0x1E, 0x02, 0x00, 0x0E, 0xE6, 0x48, 0x01, 0x40, 0x88, 0x80, 0x38, 
  0xFE, 0x81, 0x82, 0x1E, 0x80, 0x30, 0x10, 0x30, 0x7C, 0x03, 0x00, 0x8E, 
  0x00, 0x08, 0x01, 0x40, 0x8B, 0x40, 0xB8, 0x77, 0x80, 0x82, 0x06, 0x80, 
  0x0F, 0x10, 0x10, 0x00, 0x00, 0x00, 0x8E, 0x8F, 0x48, 0x01, 0x40, 0x08, 
  0x7F, 0xE8, 0x7F, 0x80, 0x83, 0x07, 0x00, 0x07, 0x10, 0x10, 0x00, 0x00, 
  0x00, 0x8A, 0xFF, 0x68, 0x01, 0x40, 0x08, 0x3E, 0xE8, 0x77, 0x80, 0xE3, 
  0x0D, 0x00, 0x00, 0x20, 0x10, 0x00, 0x00, 0x00, 0x83, 0x78, 0x08, 0x01, 
  0x40, 0x1B, 0x00, 0xE8, 0x73, 0xE0, 0x39, 0x1A, 0x00, 0x00, 0x20, 0x08, 
  0x00, 0x00, 0x00, 0x83, 0x4C, 0x2C, 0x01, 0xC0, 0x12, 0x03, 0xE0, 0x70, 
  0x70, 0x0E, 0x1E, 0x00, 0x00, 0x40, 0x0C, 0x00, 0x00, 0x00, 0x87, 0x50, 
  0xE4, 0x01, 0xC0, 0x10, 0x3B, 0x70, 0x60, 0x50, 0x03, 0x1C, 0x00, 0x00, 
  0xC0, 0x0E, 0x00, 0x00, 0x00, 0xC7, 0x61, 0xA4, 0x01, 0x80, 0x12, 0x19, 
  0x71, 0x60, 0xD0, 0x05, 0x1C, 0x00, 0x00, 0x80, 0x07, 0x00, 0x00, 0x00, 
  0x47, 0x60, 0xA4, 0x00, 0x80, 0x12, 0xF1, 0x51, 0x60, 0x60, 0x0C, 0x1C, 
  0x00, 0x00, 0x00, 0x00, 0x00, 0x00, 0x80, 0x45, 0x00, 0xB4, 0x00, 0x80, 
  0x10, 0xFE, 0xC1, 0x60, 0xA8, 0x08, 0x1C, 0x00, 0x00, 0x00, 0x00, 0x00, 
  0x00, 0x80, 0xC1, 0x03, 0x86, 0x00, 0x80, 0x34, 0x0E, 0xC1, 0x78, 0x4E, 
  0x03, 0x1C, 0x00, 0x00, 0x00, 0x00, 0x00, 0x00, 0x80, 0x03, 0x3C, 0x92, 
  0x00, 0x80, 0x25, 0x02, 0xA2, 0xDD, 0xC3, 0x23, 0x1C, 0x00, 0x00, 0x00, 
  0x00, 0x00, 0x00, 0xC0, 0x02, 0x3C, 0xD2, 0x00, 0x00, 0x21, 0xC0, 0xA1, 
  0xC5, 0x80, 0x43, 0x1C, 0x00, 0x00, 0x00, 0x00, 0x00, 0x00, 0xC0, 0x80, 
  0x1F, 0x42, 0x00, 0x00, 0x29, 0xFE, 0xC1, 0xF5, 0x80, 0x83, 0x1D, 0x00, 
  0x00, 0x00, 0x00, 0x00, 0x00, 0xC0, 0xE1, 0x07, 0x42, 0x00, 0x00, 0x29, 
  0xCC, 0x40, 0x1F, 0x81, 0x03, 0x1F, 0x00, 0x00, 0x00, 0x00, 0x00, 0x00, 
  0x60, 0xE1, 0x00, 0x59, 0x00, 0x00, 0x43, 0xE4, 0x04, 0x0F, 0x82, 0x03, 
  0x1C, 0x00, 0x00, 0x00, 0x00, 0x00, 0x00, 0xE0, 0x00, 0x1F, 0x69, 0x00, 
  0x00, 0x4A, 0x70, 0x84, 0x2E, 0x86, 0x03, 0x1F, 0x00, 0x00, 0x00, 0x00, 
  0x00, 0x00, 0xB0, 0x08, 0x08, 0x25, 0x00, 0x00, 0xDA, 0x30, 0x0F, 0xD6, 
  0x04, 0xC3, 0x0F, 0x77, 0x6F, 0x5C, 0x74, 0xE9, 0x1E, 0x70, 0x08, 0x8A, 
  0x2C, 0x00, 0x00, 0x86, 0xF0, 0x00, 0xE5, 0x18, 0x73, 0x07, 0x51, 0x66, 
  0x54, 0x54, 0x29, 0x36, 0x58, 0x3C, 0x8E, 0x30, 0x00, 0x00, 0x86, 0x10, 
  0x10, 0xFC, 0x20, 0xFF, 0x01, 0x77, 0xE6, 0x5C, 0x74, 0xEF, 0x36, 0x38, 
  0xFC, 0x84, 0x14, 0x00, 0x00, 0x34, 0x11, 0x38, 0xFA, 0xC0, 0x7F, 0x00, 
  0xD1, 0xF6, 0x54, 0xD4, 0x29, 0x16, 0x2C, 0xE0, 0x47, 0x16, 0x00, 0x00, 
  0x0C, 0x01, 0x38, 0xFC, 0x80, 0x3F, 0x00, 0x7F, 0x96, 0xDC, 0x75, 0xE9, 
  0x1F, 0x16, 0x82, 0x43, 0x18, 0x00, 0x00, 0x68, 0x02, 0x1C, 0xF0, 0xC0, 
  0x0F, 0x00, 0x00, 0x00, 0x00, 0x00, 0x00, 0x00, 0x06, 0x01, 0x62, 0x09, 
  0x00, 0x00, 0x58, 0x02, 0x16, 0xE8, 0xF0, 0x03, 0x00, 0x00, 0x00, 0x00, 
  0x00, 0x00, 0x00, 0x0B, 0xC7, 0x21, 0x0D, 0x00, 0x00, 0x10, 0x06, 0x97, 
  0xD0, 0xFC, 0x01, 0x00, 0x00, 0x00, 0x00, 0x00, 0x00, 0x80, 0x85, 0x0F, 
  0x31, 0x04, 0x00, 0x00, 0x90, 0x84, 0xFB, 0xC1, 0x7E, 0x00, 0x00, 0x00, 
  0x60, 0x0C, 0xC6, 0x00, 0xC0, 0x42, 0x3C, 0x90, 0x06, 0x00, 0x00, 0xB0, 
  0x8C, 0x01, 0x80, 0x1F, 0x00, 0x00, 0x00, 0x70, 0x16, 0xE3, 0x00, 0x60, 
  0x40, 0xF6, 0xD8, 0x06, 0x00, 0x00, 0x20, 0x09, 0x00, 0x42, 0x0F, 0x00, 
  0x00, 0x00, 0x60, 0x16, 0x81, 0x00, 0x60, 0xC0, 0x66, 0x08, 0x02, 0x00, 
  0x00, 0x40, 0x13, 0x00, 0x87, 0x06, 0x00, 0x00, 0x00, 0x60, 0x9C, 0xC7, 
  0x00, 0xB0, 0x90, 0x28, 0x2C, 0x03, 0x00, 0x00, 0x40, 0x10, 0x88, 0x0F, 
  0x0D, 0x00, 0x00, 0x00, 0x60, 0x98, 0x45, 0x01, 0x58, 0x38, 0x30, 0x26, 
  0x01, 0x00, 0x00, 0x80, 0x24, 0xCC, 0x01, 0x3A, 0x00, 0x00, 0x00, 0x60, 
  0x0C, 0xE5, 0x01, 0x2E, 0x7C, 0x18, 0x82, 0x00, 0x00, 0x00, 0x80, 0x4D, 
  0xF8, 0x00, 0x74, 0x00, 0x00, 0x00, 0x00, 0x00, 0x00, 0x00, 0x13, 0xE0, 
  0x00, 0xDB, 0x00, 0x00, 0x00, 0x00, 0xC1, 0x38, 0x30, 0xC8, 0x00, 0x00, 
  0x00, 0x00, 0x00, 0x00, 0x80, 0x01, 0xE7, 0x81, 0x49, 0x00, 0x00, 0x00, 
  0x00, 0x92, 0x10, 0x98, 0xB0, 0x01, 0x00, 0x00, 0x00, 0x00, 0x00, 0xC0, 
  0x02, 0xBF, 0x87, 0x64, 0x00, 0x00, 0x00, 0x00, 0x86, 0xE1, 0x9C, 0x40, 
  0x07, 0x00, 0x00, 0x00, 0x00, 0x00, 0x70, 0x01, 0x11, 0x43, 0x36, 0x00, 
  0x00, 0x00, 0x00, 0x04, 0x43, 0x9A, 0x81, 0x1E, 0x00, 0x00, 0x00, 0x00, 
  0x00, 0xFC, 0x00, 0x30, 0x61, 0x10, 0x00, 0x00, 0x00, 0x00, 0x68, 0x06, 
  0xBB, 0x00, 0x7A, 0x00, 0x00, 0x00, 0x00, 0x00, 0x2E, 0x00, 0xF0, 0x30, 
  0x19, 0x00, 0x00, 0x00, 0x00, 0x10, 0x04, 0xBB, 0x00, 0xE4, 0x01, 0x00, 
  0x00, 0x00, 0x80, 0x1B, 0x00, 0x20, 0x18, 0x0C, 0x00, 0x00, 0x00, 0x00, 
  0x30, 0x09, 0x32, 0x00, 0x90, 0x07, 0x00, 0x00, 0x00, 0xF0, 0x04, 0x00, 
  0x00, 0x4C, 0x06, 0x00, 0x00, 0x00, 0x00, 0x60, 0x11, 0x1E, 0x00, 0x40, 
  0x3E, 0x00, 0x00, 0x00, 0xBE, 0x01, 0x00, 0x00, 0x44, 0x03, 0x00, 0x00, 
  0x00, 0x00, 0x40, 0x20, 0x00, 0x00, 0x80, 0xFB, 0x03, 0x00, 0xE0, 0x67, 
  0x00, 0x09, 0x00, 0x82, 0x01, 0x00, 0x00, 0x00, 0x00, 0x80, 0x64, 0x00, 
  0x00, 0x01, 0xDC, 0xFF, 0x83, 0xFF, 0x0C, 0x00, 0x0F, 0x00, 0x99, 0x00, 
  0x00, 0x00, 0x00, 0x00, 0x80, 0xC1, 0x00, 0xA0, 0x01, 0xE0, 0xF8, 0xFF, 
  0x0F, 0x01, 0x00, 0x0F, 0x80, 0xC0, 0x00, 0x00, 0x00, 0x00, 0x00, 0x00, 
  0x33, 0x01, 0xE0, 0x01, 0x00, 0x1C, 0x00, 0x1C, 0x00, 0x80, 0x1F, 0x40, 
  0x66, 0x00, 0x00, 0x00, 0x00, 0x00, 0x00, 0x36, 0x06, 0xE0, 0x03, 0x00, 
  0x00, 0x38, 0x00, 0x00, 0x00, 0x06, 0x30, 0x32, 0x00, 0x00, 0x00, 0x00, 
  0x00, 0x00, 0xC8, 0x0C, 0xF0, 0x07, 0x00, 0x00, 0x00, 0x00, 0x00, 0x00, 
  0x06, 0x98, 0x19, 0x00, 0x00, 0x00, 0x00, 0x00, 0x00, 0x90, 0x18, 0x80, 
  0x00, 0x00, 0x00, 0x00, 0x00, 0x00, 0x00, 0x00, 0x8C, 0x0C, 0x00, 0x00, 
  0x00, 0x00, 0x00, 0x00, 0x20, 0x32, 0x80, 0x00, 0x00, 0x00, 0x00, 0x00, 
  0x00, 0x00, 0x00, 0x62, 0x02, 0x00, 0x00, 0x00, 0x00, 0x00, 0x00, 0x40, 
  0xE2, 0x00, 0x00, 0x00, 0x06, 0x00, 0xF0, 0x00, 0x00, 0x80, 0xA1, 0x01, 
  0x00, 0x00, 0x00, 0x00, 0x00, 0x00, 0x80, 0x98, 0x01, 0x00, 0x00, 0x36, 
  0x68, 0x50, 0x00, 0x00, 0xE0, 0xCC, 0x00, 0x00, 0x00, 0x00, 0x00, 0x00, 
  0x00, 0x00, 0x13, 0x06, 0x00, 0x00, 0x26, 0xCC, 0x70, 0x00, 0x00, 0x30, 
  0x6C, 0x00, 0x00, 0x00, 0x00, 0x00, 0x00, 0x00, 0x00, 0xC6, 0x1C, 0x00, 
  0x00, 0x26, 0xCC, 0x70, 0x00, 0x00, 0x8C, 0x31, 0x00, 0x00, 0x00, 0x00, 
  0x00, 0x00, 0x00, 0x00, 0x18, 0x33, 0x00, 0x00, 0x22, 0xCC, 0x30, 0x19, 
  0x00, 0x27, 0x0C, 0x00, 0x00, 0x00, 0x00, 0x00, 0x00, 0x00, 0x00, 0x30, 
  0xE2, 0x00, 0x00, 0x32, 0xCC, 0xB0, 0x01, 0xC0, 0x21, 0x06, 0x00, 0x00, 
  0x00, 0x00, 0x00, 0x00, 0x00, 0x00, 0x60, 0x18, 0x07, 0x00, 0x97, 0x48, 
  0x32, 0x00, 0x70, 0x8C, 0x01, 0x00, 0x00, 0x00, 0x00, 0x00, 0x00, 0x00, 
  0x00, 0x80, 0x51, 0x38, 0x00, 0x00, 0x00, 0x00, 0x00, 0x0E, 0xE8, 0x00, 
  0x00, 0x00, 0x00, 0x00, 0x00, 0x00, 0x00, 0x00, 0x00, 0xC6, 0xE0, 0x00, 
  0x00, 0x00, 0x00, 0x80, 0x83, 0x31, 0x00, 0x00, 0x00, 0x00, 0x00, 0x00, 
  0x00, 0x00, 0x00, 0x00, 0x1C, 0x06, 0x1F, 0x00, 0x00, 0x00, 0x7C, 0x30, 
  0x1C, 0x00, 0x00, 0x00, 0x00, 0x00, 0x00, 0x00, 0x00, 0x00, 0x00, 0x70, 
  0x30, 0xF0, 0x01, 0x00, 0x80, 0x07, 0x86, 0x03, 0x00, 0x00, 0x00, 0x00, 
  0x00, 0x00, 0x00, 0x00, 0x00, 0x00, 0xC0, 0xB3, 0x81, 0xFF, 0xFF, 0x7F, 
  0xC0, 0xE2, 0x00, 0x00, 0x00, 0x00, 0x00, 0x00, 0x00, 0x00, 0x00, 0x00, 
  0x00, 0x00, 0x8E, 0x0C, 0x00, 0x0E, 0x00, 0x18, 0x38, 0x00, 0x00, 0x00, 
  0x00, 0x00, 0x00, 0x00, 0x00, 0x00, 0x00, 0x00, 0x00, 0x78, 0x60, 0x02, 
  0x00, 0xB0, 0x83, 0x0F, 0x00, 0x00, 0x00, 0x00, 0x00, 0x00, 0x00, 0x00, 
  0x00, 0x00, 0x00, 0x00, 0xC0, 0x0F, 0xB2, 0x6D, 0x36, 0xF9, 0x00, 0x00, 
  0x00, 0x00, 0x00, 0x00, 0x00, 0x00, 0x00, 0x00, 0x00, 0x00, 0x00, 0x00, 
  0xFC, 0x00, 0x4C, 0x00, 0x0F, 0x00, 0x00, 0x00, 0x00, 0x00, 0x00, 0x00, 
  0x00, 0x00, 0x00, 0x00, 0x00, 0x00, 0x00, 0x80, 0xFF, 0xEF, 0xFF, 0x01, 
  0x00, 0x00, 0x00, 0x00, 0x00, 0x00, 0x00, 0x00, 0x00, 0x00, 0x00, 0x00, 
  0x00, 0x00, 0x00, 0x00, 0xFF, 0x00, 0x00, 0x00, 0x00, 0x00, 0x00, 0x00, 
  0x00, 0x00, 0x00, 0x00, 0x00, 0x00, 0x00, 0x00, 0x00, 0x00, 0x00, 0x00, 
  0x00, 0x00, 0x00, 0x00, 0x00, 0x00, 0x00, 0x00, 0x00, 0x00, 0x00, 0x00, 
  0x00, 0x00, 0x00, 0x00, 0x00, 0x00, 0x00, 0x00, 0x00, 0x00, 0x00, 0x00, 
  0x00, 0x00, 0x00, 0x00, 0x00, 0x00, 0x00, 0x00, 0x00, 0x00, 0x00, 0x00, 
  0x00, 0x00, 0x00, 0x00, 0x00, 0x00, 0x00, 0x00, 0x00, 0x00, 0x00, 0x00, 
  0x00, 0x00, 0x00, 0x00, 0x00, 0x00, 0x00, 0x00, 0x00, 0x00, 0x00, 0x00, 
  0x00, 0x00, 0x00, 0x00, 0x00, 0x00, };
